<svg xmlns="http://www.w3.org/2000/svg" width="24.48" height="22" viewBox="0 0 24.48 22">
  <path id="heart_2_" data-name="heart (2)" d="M20.7,1.957A6.045,6.045,0,0,0,16.2,0a5.655,5.655,0,0,0-3.532,1.219A7.227,7.227,0,0,0,11.24,2.71,7.223,7.223,0,0,0,9.812,1.219,5.654,5.654,0,0,0,6.28,0a6.045,6.045,0,0,0-4.5,1.957A7.027,7.027,0,0,0,0,6.756a8.367,8.367,0,0,0,2.23,5.477,47.544,47.544,0,0,0,5.581,5.239c.773.659,1.65,1.406,2.56,2.2a1.32,1.32,0,0,0,1.738,0c.91-.8,1.787-1.543,2.561-2.2a47.517,47.517,0,0,0,5.581-5.238A8.366,8.366,0,0,0,22.48,6.756a7.026,7.026,0,0,0-1.783-4.8Zm0,0" transform="translate(1 1)" fill="none" stroke="#000" stroke-width="2"/>
</svg>
